<?xml version="1.0" encoding="UTF-8" standalone="no"?>
<!-- Created with Inkscape (http://www.inkscape.org/) -->

<svg
   width="512"
   height="512"
   viewBox="0 0 512 512"
   version="1.1"
   id="svg1"
   xml:space="preserve"
   xmlns="http://www.w3.org/2000/svg"
   xmlns:svg="http://www.w3.org/2000/svg"><defs
     id="defs1" /><g
     id="layer2"><g
       id="g16"
       transform="matrix(1.8087895,0,0,1.8087895,-198.25917,-191.5664)"
       style="fill:#fafafa;fill-opacity:1"><rect
         style="opacity:1;fill:#fafafa;fill-opacity:1;stroke-width:8.63176;stroke-miterlimit:0;paint-order:stroke fill markers"
         id="rect4"
         width="98.752312"
         height="98.752312"
         x="145.13368"
         y="143.11807"
         ry="14.808805" /><path
         id="rect9"
         style="opacity:1;fill:#fafafa;fill-opacity:1;stroke-width:8.004;stroke-miterlimit:0;paint-order:stroke fill markers"
         d="m 454.3161,247.89304 v 99.88349 c 0,7.60742 -6.12438,13.7318 -13.7318,13.7318 H 338.3248 c -11.04943,0 -13.79204,-6.44703 -6.00188,-14.27743 25.49682,-25.62853 79.32181,-79.24487 106.12846,-105.93133 8.76066,-8.72138 15.86472,-5.76819 15.86472,6.59347 z"
         transform="matrix(1.3048821,0.00721499,-0.00721499,1.3048821,-233.89497,-123.14344)" /><path
         id="rect9-42"
         style="fill:#fafafa;fill-opacity:1;stroke-width:8.004;stroke-miterlimit:0;paint-order:stroke fill markers"
         d="m 454.3161,247.89304 v 99.88349 c 0,7.60742 -6.12438,13.7318 -13.7318,13.7318 H 338.3248 c -11.04943,0 -13.79204,-6.44703 -6.00188,-14.27743 25.49682,-25.62853 79.32181,-79.24487 106.12846,-105.93133 8.76066,-8.72138 15.86472,-5.76819 15.86472,6.59347 z"
         transform="matrix(-0.74570713,-0.00412318,0.00412318,-0.74570713,483.13832,526.04572)" /><path
         id="rect9-42-9"
         style="fill:#fafafa;fill-opacity:1;stroke-width:8.004;stroke-miterlimit:0;paint-order:stroke fill markers"
         d="m 454.3161,247.89304 v 99.88349 c 0,7.60742 -6.12438,13.7318 -13.7318,13.7318 H 338.3248 c -11.04943,0 -13.79204,-6.44703 -6.00188,-14.27743 25.49682,-25.62853 79.32181,-79.24487 106.12846,-105.93133 8.76066,-8.72138 15.86472,-5.76819 15.86472,6.59347 z"
         transform="matrix(-0.74570713,-0.00412318,0.00412318,-0.74570713,595.11872,414.7391)" /></g></g></svg>
